<?xml version="1.0" encoding="iso-8859-1"?>
<!-- Generator: Adobe Illustrator 16.0.0, SVG Export Plug-In . SVG Version: 6.00 Build 0)  -->
<!DOCTYPE svg PUBLIC "-//W3C//DTD SVG 1.1//EN" "http://www.w3.org/Graphics/SVG/1.1/DTD/svg11.dtd">
<svg xmlns="http://www.w3.org/2000/svg" xmlns:xlink="http://www.w3.org/1999/xlink" version="1.1" id="Capa_1" x="0px" y="0px" width="512px" height="512px" viewBox="0 0 481.763 481.763" style="enable-background:new 0 0 481.763 481.763;" xml:space="preserve">
<g>
	<path d="M453.584,405.715L298.332,250.457c-1.454-1.46-3.009-2.755-4.61-3.967l27.497-28.954c1.406-1.416,2.736-2.905,3.96-4.436   c36.505,13.77,79.34,6.029,108.682-23.309c21.402-21.409,32.195-51.013,29.583-81.226c-0.283-3.419-2.548-6.375-5.769-7.542   c-3.228-1.179-6.845-0.375-9.274,2.045l-49.757,49.754l-50.377-12.699l-14.287-51.967l49.745-49.748   c2.441-2.433,3.239-6.053,2.063-9.277c-1.171-3.233-4.126-5.479-7.555-5.78c-30.21-2.604-59.816,8.183-81.226,29.592   c-29.317,29.317-37.078,72.129-23.323,108.619c-1.496,1.265-2.985,2.61-4.445,4.049l-40.471,38.869l-74.319-74.312   c-0.928-0.931-1.918-1.75-2.938-2.519c0.872-1.53,1.72-3.105,2.512-4.74c15.696,3.021,44.39-27.544,68.76-51.905L151.787,0   c-31.747,31.752-54.929,53.061-51.92,68.757c-7.258,3.546-13.728,7.882-18.326,12.486l-10.001,9.998   c-6.493,6.502-10.409,14.588-11.807,23.014c-0.97,1.108-1.957,2.275-2.938,3.523l-3.727,4.684   c-0.104,0.115-0.425,0.576-0.514,0.694l-3.378,4.729c-2.113,2.819-3.96,5.881-5.746,8.836c-0.659,1.097-1.33,2.196-2.015,3.292   c-0.109,0.189-0.216,0.375-0.313,0.562l-1.501,2.828c-1.814,3.402-3.697,6.924-5.308,10.799l-0.26,0.617   c-1.9,4.513-3.869,9.186-5.243,14.139l-0.665,2.143c-0.544,1.762-1.097,3.52-1.605,5.621l-1.38,6.833   c-1.029,4.273-1.375,8.488-1.676,12.221l-0.201,2.453c-0.508,3.871-0.36,7.521-0.222,10.742c0.047,1.079,0.089,2.137,0.121,3.564   c0.036,0.594,0.042,1.173,0.06,1.744c0.035,1.439,0.074,3.074,0.352,4.793l0.866,5.545c0.186,1.072,0.343,2.113,0.491,3.111   c0.331,2.252,0.671,4.581,1.342,6.792l3.632,12.602c1.12,3.83,4.758,6.366,8.739,6.088c2.107-0.147,4.001-1.058,5.411-2.471   c1.259-1.259,2.131-2.914,2.397-4.781l1.883-12.812c0.139-1.017,0.576-2.506,1.028-4.082c0.322-1.093,0.635-2.208,0.877-3.159   l1.339-4.782c0.163-0.647,0.479-1.277,0.757-1.924c0.266-0.6,0.532-1.218,0.769-1.827c0.449-1.017,0.872-2.033,1.288-3.076   c0.825-2.045,1.605-3.969,2.796-5.858c0.518-0.872,0.999-1.738,1.49-2.622c1.241-2.222,2.42-4.32,3.821-6.059   c0.088-0.103,0.168-0.218,0.26-0.34l3.159-4.356c0.647-0.819,1.374-1.593,2.081-2.373c0.502-0.55,1.005-1.103,1.64-1.83   c1.865-2.243,4.055-4.199,6.168-6.124l1.132-1.017c1.566-1.454,3.378-2.822,5.284-4.268c0.78-0.583,1.543-1.162,2.293-1.732   c0.963-0.624,1.895-1.247,2.813-1.865c1.72-1.162,3.209-2.167,4.93-3.062l3.745-2.131l3.789-1.858   c1.321-0.683,2.622-1.209,3.821-1.693c0.712-0.296,1.416-0.583,2.069-0.866c0.665-0.23,1.306-0.479,1.912-0.703   c0.812-0.296,1.513-0.58,2.465-0.828l1.022-0.23c1.114,1.803,2.42,3.517,3.987,5.083l73.515,73.518L31.647,393.822   c-0.062,0.059-0.121,0.124-0.178,0.178c-19.529,19.529-22.709,48.131-3.177,67.666c19.532,19.529,46.316,14.522,65.84-5   c0.086-0.083,0.16-0.16,0.236-0.249l138.448-145.782c0.812,0.957,1.616,1.92,2.518,2.824l155.24,155.253   c17.396,17.401,45.613,17.401,63.009,0C470.974,451.322,470.974,423.104,453.584,405.715z M73.871,440.564   c-7.191,7.199-18.855,7.199-26.052,0c-7.19-7.193-7.19-18.85,0-26.043c7.19-7.188,18.855-7.193,26.052,0   C81.055,421.715,81.055,433.371,73.871,440.564z" fill="#FFFFFF"/>
</g>
<g>
</g>
<g>
</g>
<g>
</g>
<g>
</g>
<g>
</g>
<g>
</g>
<g>
</g>
<g>
</g>
<g>
</g>
<g>
</g>
<g>
</g>
<g>
</g>
<g>
</g>
<g>
</g>
<g>
</g>
</svg>
