<?xml version="1.0" encoding="iso-8859-1"?>
<!-- Generator: Adobe Illustrator 19.0.0, SVG Export Plug-In . SVG Version: 6.00 Build 0)  -->
<svg xmlns="http://www.w3.org/2000/svg" xmlns:xlink="http://www.w3.org/1999/xlink" version="1.1" id="Layer_1" x="0px" y="0px" viewBox="0 0 512.001 512.001" style="enable-background:new 0 0 512.001 512.001;" xml:space="preserve" width="512px" height="512px">
<g>
	<g>
		<path d="M272.726,171.019L14.578,429.168C-4.109,447.856-4.932,478.3,13.44,497.297c18.769,19.406,49.719,19.603,68.735,0.587    l259.781-259.781C321.416,214.983,288.63,185.17,272.726,171.019z" fill="#FFFFFF"/>
	</g>
</g>
<g>
	<g>
		<path d="M438.945,160.15c-4.691-6.233-4.066-14.971,1.451-20.488l11.916-11.916c18.688-18.688,19.512-49.133,1.139-68.13    c-18.77-19.405-49.719-19.602-68.733-0.586l-12.478,12.477c-5.513,5.513-14.25,6.144-20.481,1.455    C257.579,2.077,150.626-18.261,95.995,16.797c-2.798,1.795-4.733,4.754-4.939,8.071c-0.318,5.109,3.068,9.486,7.807,10.629    c61.44,14.807,133.871,51.324,198.52,110.865c17.724,16.324,51.728,50.527,68.156,68.156    c59.836,64.208,95.949,136.881,110.802,198.26c0.767,3.171,2.873,5.917,5.866,7.217c4.735,2.056,10.041,0.32,12.707-3.798    C530.211,361.68,509.99,254.534,438.945,160.15z" fill="#FFFFFF"/>
	</g>
</g>
</svg>
